<svg id="svg" version="1.1" xmlns="http://www.w3.org/2000/svg" xmlns:xlink="http://www.w3.org/1999/xlink" width="400" height="400" viewBox="0, 0, 400,400"><g id="svgg"><path id="path0" d="M0.000 200.000 L 0.000 400.000 200.000 400.000 L 400.000 400.000 400.000 200.000 L 400.000 0.000 200.000 0.000 L 0.000 0.000 0.000 200.000 M107.880 131.418 C 167.991 139.287,194.254 213.376,152.493 257.275 C 110.342 301.584,36.927 280.499,24.100 220.400 C 17.777 190.776,33.799 154.598,59.082 141.408 C 59.917 140.973,61.410 140.130,62.400 139.536 C 68.926 135.618,79.998 132.242,90.200 131.059 C 93.609 130.664,103.680 130.868,107.880 131.418 M91.071 137.257 C 75.392 138.640,57.493 147.524,47.427 158.918 C 44.687 162.020,39.200 169.251,39.200 169.761 C 39.200 169.968,38.952 170.421,38.649 170.769 C 38.345 171.116,37.461 172.660,36.684 174.200 C 17.954 211.302,34.796 255.235,73.476 270.173 C 91.218 277.025,114.664 275.589,129.718 266.729 C 130.772 266.108,131.707 265.600,131.795 265.600 C 135.074 265.600,149.365 252.331,154.800 244.239 C 187.192 196.013,149.139 132.133,91.071 137.257 M205.650 141.703 C 206.125 142.553,210.616 153.896,213.796 162.278 C 216.682 169.884,216.781 169.600,211.236 169.600 C 206.491 169.600,206.495 169.602,205.787 167.200 L 205.374 165.800 201.441 165.800 L 197.507 165.800 196.843 167.600 L 196.179 169.400 191.882 169.514 C 185.940 169.671,185.793 171.841,193.071 152.000 C 195.129 146.390,196.886 141.598,196.974 141.351 C 197.268 140.535,205.176 140.856,205.650 141.703 M282.663 145.700 C 282.520 148.175,282.403 154.565,282.402 159.900 L 282.400 169.600 278.387 169.600 C 273.500 169.600,274.055 171.426,273.916 154.900 L 273.800 141.200 278.361 141.200 L 282.922 141.200 282.663 145.700 M231.929 150.002 C 233.222 150.589,233.608 150.965,233.460 151.493 C 233.352 151.882,232.974 153.235,232.620 154.500 C 231.914 157.028,231.962 157.001,229.446 156.328 C 227.382 155.776,225.857 156.471,225.170 158.279 C 224.204 160.820,226.929 163.740,229.393 162.803 C 232.029 161.800,233.200 163.276,233.200 167.599 C 233.200 169.812,225.628 170.722,222.195 168.922 C 210.097 162.579,219.475 144.351,231.929 150.002 M249.099 149.816 C 251.124 150.662,251.218 150.953,250.408 153.875 C 249.519 157.078,249.636 156.986,247.256 156.376 C 245.498 155.925,245.142 155.946,244.215 156.554 C 240.769 158.811,243.208 163.949,247.163 162.764 C 249.658 162.016,250.800 163.517,250.800 167.546 C 250.800 171.074,241.146 170.725,237.390 167.062 C 229.098 158.972,238.360 145.329,249.099 149.816 M266.307 149.819 C 269.394 151.109,271.571 154.278,271.859 157.900 C 272.135 161.379,271.093 161.895,263.600 161.986 C 260.491 162.023,259.774 162.579,261.763 163.410 C 263.197 164.010,263.450 164.008,265.156 163.386 C 268.875 162.030,271.448 163.498,271.103 166.779 C 270.792 169.738,261.735 170.981,257.200 168.687 C 245.658 162.850,254.357 144.826,266.307 149.819 M200.648 155.040 C 199.656 157.952,199.756 158.400,201.400 158.400 C 202.984 158.400,203.082 158.087,202.333 155.446 C 201.640 153.006,201.364 152.939,200.648 155.040 M260.262 155.931 C 258.947 157.385,259.389 157.947,261.500 157.505 C 263.862 157.010,263.889 156.983,263.002 156.002 C 262.099 155.004,261.124 154.979,260.262 155.931 M68.751 187.211 C 69.292 188.405,70.044 190.196,70.420 191.191 C 70.797 192.186,71.829 194.800,72.715 197.000 C 74.536 201.526,79.139 213.563,80.222 216.631 C 81.264 219.583,81.057 219.814,77.260 219.943 C 75.483 220.004,73.223 219.933,72.237 219.785 L 70.444 219.516 69.711 217.058 L 68.978 214.600 64.347 214.488 C 58.421 214.344,57.832 214.564,57.211 217.153 C 56.946 218.257,56.521 219.332,56.265 219.541 C 55.757 219.957,47.026 219.959,46.610 219.544 C 46.236 219.169,47.456 215.613,54.965 195.200 C 56.867 190.030,58.488 185.610,58.569 185.378 C 58.661 185.113,60.390 184.972,63.240 184.999 L 67.766 185.041 68.751 187.211 M93.600 190.029 C 93.490 192.763,93.400 198.690,93.400 203.200 L 93.400 211.400 100.761 211.244 L 108.123 211.088 107.900 215.119 C 107.778 217.336,107.560 219.341,107.416 219.575 C 107.116 220.059,95.362 220.156,88.040 219.734 L 83.479 219.471 83.711 210.235 C 83.839 205.156,83.821 197.445,83.671 193.099 C 83.522 188.754,83.552 185.148,83.737 185.087 C 83.922 185.026,86.262 184.994,88.937 185.017 L 93.800 185.058 93.600 190.029 M129.962 185.439 C 130.433 185.963,139.258 208.353,141.640 215.068 C 143.373 219.950,143.288 220.050,137.450 219.953 C 132.486 219.870,132.302 219.774,131.638 216.897 L 131.061 214.400 126.356 214.400 C 120.481 214.400,119.845 214.621,119.260 216.869 C 118.492 219.819,118.529 219.800,113.635 219.800 C 111.132 219.800,109.061 219.621,108.825 219.385 C 108.363 218.923,109.728 214.839,116.374 196.800 C 118.602 190.750,120.495 185.600,120.579 185.356 C 120.765 184.816,129.472 184.893,129.962 185.439 M198.112 196.839 L 197.876 207.545 203.991 207.309 L 210.106 207.074 209.822 210.237 C 209.666 211.977,209.442 213.808,209.324 214.307 L 209.110 215.215 199.655 214.974 C 194.455 214.842,189.975 214.664,189.700 214.579 C 189.224 214.433,188.898 186.835,189.367 186.367 C 189.459 186.275,191.517 186.185,193.941 186.167 L 198.348 186.134 198.112 196.839 M224.146 195.002 C 225.560 195.740,225.600 195.740,225.600 195.000 C 225.600 194.244,227.711 194.225,230.800 194.952 C 232.970 195.463,232.999 195.488,232.894 196.835 C 232.836 197.586,232.746 201.890,232.694 206.400 L 232.600 214.600 228.893 214.715 C 225.972 214.806,225.140 214.709,224.967 214.259 C 224.778 213.767,224.582 213.770,223.550 214.285 C 216.111 217.996,208.917 210.231,211.242 201.001 C 212.511 195.959,219.633 192.649,224.146 195.002 M244.400 195.407 L 244.400 196.413 246.387 195.407 C 248.862 194.152,252.319 194.035,254.406 195.134 C 256.922 196.459,257.199 197.579,257.199 206.457 C 257.200 215.485,257.545 214.800,253.000 214.800 C 248.522 214.800,248.800 215.224,248.800 208.386 C 248.800 202.313,248.527 201.200,247.041 201.200 C 245.325 201.200,244.827 202.827,244.712 208.814 L 244.600 214.600 241.605 214.719 C 236.519 214.922,236.943 215.609,236.650 206.705 C 236.510 202.467,236.289 198.243,236.158 197.318 C 235.940 195.784,236.002 195.619,236.860 195.448 C 237.377 195.345,238.610 195.089,239.600 194.878 C 243.129 194.129,244.400 194.269,244.400 195.407 M271.300 194.979 C 272.257 195.478,272.400 195.477,272.400 194.976 C 272.400 194.351,277.027 194.145,279.587 194.657 L 280.874 194.915 280.725 203.957 C 280.494 217.841,278.310 220.681,268.496 219.854 C 261.603 219.273,260.612 218.670,261.259 215.446 C 261.824 212.634,262.086 212.512,265.735 213.372 C 268.790 214.091,270.173 213.891,271.699 212.510 C 272.844 211.474,272.502 211.198,270.901 211.867 C 266.749 213.602,260.818 210.933,259.547 206.756 C 257.129 198.816,264.499 191.431,271.300 194.979 M320.946 195.002 C 322.372 195.746,322.400 195.745,322.400 194.942 C 322.400 194.183,326.265 194.361,328.738 195.233 C 330.069 195.702,330.074 195.713,329.747 197.552 C 329.567 198.569,329.415 202.820,329.410 207.000 L 329.400 214.600 325.693 214.715 C 322.772 214.806,321.940 214.709,321.767 214.259 C 321.578 213.767,321.382 213.770,320.350 214.285 C 310.863 219.018,302.675 204.193,310.649 196.722 C 313.037 194.485,318.277 193.610,320.946 195.002 M344.100 194.979 C 345.057 195.478,345.200 195.477,345.200 194.976 C 345.200 194.355,349.821 194.144,352.350 194.650 L 353.600 194.900 353.600 202.577 C 353.600 218.573,350.675 221.696,337.837 219.408 C 333.668 218.666,333.434 218.412,334.123 215.377 C 334.759 212.578,334.985 212.479,338.630 213.393 C 341.575 214.131,343.330 213.819,344.652 212.322 C 345.393 211.482,345.391 211.477,344.400 211.767 C 336.214 214.161,329.426 207.221,332.373 199.470 C 333.935 195.362,340.220 192.955,344.100 194.979 M370.617 195.152 C 374.359 196.852,377.331 203.277,375.623 205.976 C 375.240 206.581,371.548 207.138,367.600 207.186 C 364.491 207.223,363.774 207.779,365.763 208.610 C 367.195 209.209,367.453 209.207,369.156 208.596 C 372.752 207.304,373.023 207.336,374.193 209.189 C 377.842 214.970,364.964 217.751,359.085 212.452 C 350.446 204.663,360.000 190.329,370.617 195.152 M292.611 200.981 C 292.599 207.095,292.996 208.321,294.783 207.695 C 296.656 207.038,296.800 206.542,296.800 200.738 L 296.800 195.200 301.007 195.200 L 305.214 195.200 305.107 204.900 L 305.000 214.600 301.000 214.600 C 297.156 214.600,296.995 214.565,296.872 213.700 C 296.718 212.613,296.764 212.617,295.123 213.561 C 290.594 216.168,285.384 214.416,284.430 209.965 C 283.867 207.340,283.878 199.239,284.447 196.977 L 284.895 195.200 288.759 195.200 L 292.623 195.200 292.611 200.981 M63.200 197.703 C 63.200 197.760,62.660 199.394,62.000 201.334 C 60.286 206.374,60.292 206.400,63.213 206.400 C 66.312 206.400,66.407 206.130,65.000 201.365 C 64.144 198.465,63.200 196.545,63.200 197.703 M125.200 197.703 C 125.200 197.760,124.660 199.394,124.000 201.334 C 122.271 206.418,122.266 206.400,125.400 206.400 C 128.524 206.400,128.521 206.411,126.938 201.138 C 126.120 198.412,125.200 196.594,125.200 197.703 M268.535 200.991 C 266.787 202.215,267.017 204.537,269.014 205.846 C 270.996 207.145,273.385 204.292,272.213 202.026 C 271.342 200.340,270.002 199.963,268.535 200.991 M341.318 201.100 C 339.609 202.589,339.812 204.534,341.814 205.846 C 343.653 207.051,346.213 204.298,345.135 202.274 C 344.129 200.386,342.658 199.933,341.318 201.100 M364.262 201.131 C 362.947 202.585,363.389 203.147,365.500 202.705 C 367.862 202.210,367.889 202.183,367.002 201.202 C 366.099 200.204,365.124 200.179,364.262 201.131 M219.781 202.258 C 217.852 204.340,219.151 208.100,221.800 208.100 C 223.329 208.100,224.800 206.402,224.800 204.636 C 224.800 202.974,223.251 201.200,221.800 201.200 C 221.191 201.200,220.356 201.638,219.781 202.258 M316.582 202.182 C 315.152 203.612,315.241 205.702,316.797 207.259 C 318.177 208.638,319.238 208.553,320.700 206.945 C 323.407 203.968,319.414 199.350,316.582 202.182 M205.811 232.027 C 206.313 232.986,210.481 243.590,214.399 253.876 C 216.622 259.712,216.684 259.600,211.236 259.600 C 206.491 259.600,206.495 259.602,205.787 257.200 L 205.374 255.800 201.441 255.800 L 197.507 255.800 196.843 257.600 L 196.179 259.400 191.882 259.514 C 185.940 259.671,185.793 261.841,193.071 242.000 C 195.129 236.390,196.886 231.598,196.974 231.351 C 197.356 230.288,205.215 230.889,205.811 232.027 M281.724 233.700 C 281.546 235.295,281.412 241.775,281.426 248.100 L 281.453 259.600 278.006 259.600 C 276.071 259.600,274.371 259.411,274.128 259.168 C 273.818 258.858,273.167 258.915,271.834 259.368 C 261.894 262.743,254.672 250.112,261.750 241.729 C 263.682 239.439,269.351 238.413,272.500 239.781 C 273.143 240.061,273.200 239.724,273.200 235.666 L 273.200 231.246 274.900 231.093 C 275.835 231.009,277.826 230.908,279.324 230.870 L 282.048 230.800 281.724 233.700 M231.240 239.651 C 233.375 240.360,233.605 240.886,232.927 243.518 C 232.116 246.671,231.777 246.951,229.509 246.345 C 225.662 245.316,223.331 249.305,226.203 252.002 C 227.201 252.940,228.115 253.066,230.491 252.594 C 232.230 252.249,232.697 252.978,233.085 256.652 L 233.302 258.704 231.751 259.235 C 223.863 261.935,216.785 257.329,216.809 249.513 C 216.832 241.787,223.646 237.131,231.240 239.651 M247.937 239.841 C 248.783 240.433,248.891 240.429,249.367 239.778 C 249.925 239.015,252.173 239.104,255.341 240.017 L 256.882 240.460 256.548 242.330 C 256.365 243.359,256.212 247.620,256.208 251.800 L 256.200 259.400 252.493 259.515 C 249.572 259.606,248.740 259.509,248.567 259.059 C 248.378 258.567,248.182 258.570,247.150 259.085 C 237.690 263.804,229.498 248.971,237.449 241.522 C 239.865 239.259,245.758 238.314,247.937 239.841 M297.913 239.821 C 301.064 241.137,303.169 244.227,303.465 247.971 C 303.734 251.372,302.656 251.895,295.200 251.986 C 292.091 252.023,291.374 252.579,293.363 253.410 C 294.797 254.010,295.050 254.008,296.756 253.386 C 300.475 252.030,303.048 253.498,302.703 256.779 C 302.297 260.634,290.813 260.973,286.685 257.252 C 278.181 249.585,287.321 235.397,297.913 239.821 M313.600 240.146 L 313.600 241.091 315.468 240.146 C 318.115 238.805,321.732 238.823,323.740 240.185 L 325.192 241.171 327.154 240.185 C 329.694 238.910,333.564 238.815,335.478 239.982 C 337.959 241.495,338.028 241.808,337.908 251.042 L 337.800 259.400 334.260 259.516 C 329.465 259.674,329.516 259.734,329.821 254.240 C 330.206 247.319,329.229 244.706,327.028 246.773 C 326.052 247.690,326.017 247.903,325.910 253.560 L 325.800 259.400 321.800 259.400 L 317.800 259.400 317.800 253.363 C 317.800 246.205,317.258 244.901,314.976 246.567 C 314.283 247.073,314.179 247.790,314.000 253.267 L 313.800 259.400 309.900 259.514 L 306.000 259.629 305.993 253.714 C 305.989 250.462,305.816 246.186,305.609 244.214 C 305.188 240.211,305.270 240.035,307.600 239.978 C 308.370 239.959,309.360 239.789,309.800 239.600 C 311.584 238.833,313.600 239.123,313.600 240.146 M349.200 243.920 C 349.200 247.736,350.546 251.651,351.628 250.983 C 352.716 250.311,353.600 247.001,353.600 243.604 L 353.600 240.000 357.592 240.000 C 362.349 240.000,362.148 239.717,361.937 246.106 L 361.800 250.261 359.685 253.582 C 357.345 257.257,352.317 264.039,351.318 264.868 C 350.880 265.232,349.422 265.400,346.706 265.400 L 342.734 265.400 341.767 263.032 C 340.438 259.779,340.452 259.743,343.164 259.436 C 344.464 259.289,345.743 258.909,346.006 258.593 C 346.533 257.958,346.613 258.113,342.900 252.610 L 340.800 249.497 340.800 244.749 L 340.800 240.000 345.000 240.000 L 349.200 240.000 349.200 243.920 M200.507 245.470 C 199.562 248.268,199.608 248.400,201.519 248.400 C 203.073 248.400,203.164 247.467,201.912 244.398 L 201.341 243.000 200.507 245.470 M291.862 245.931 C 290.547 247.385,290.989 247.947,293.100 247.505 C 295.462 247.010,295.489 246.983,294.602 246.002 C 293.699 245.004,292.724 244.979,291.862 245.931 M243.382 246.982 C 241.398 248.966,242.739 252.900,245.400 252.900 C 246.157 252.900,246.873 252.530,247.478 251.828 C 250.177 248.690,246.282 244.082,243.382 246.982 M268.582 246.982 C 266.716 248.847,268.032 253.200,270.461 253.200 C 271.343 253.200,273.200 250.840,273.200 249.720 C 273.200 246.684,270.488 245.076,268.582 246.982 " stroke="none" fill="#fbfbfb" fill-rule="evenodd"></path><path id="path1" d="M90.600 131.193 C 44.521 136.120,12.572 182.323,25.458 225.400 C 44.285 288.340,124.821 300.723,160.813 246.211 C 181.345 215.114,174.380 171.171,145.238 147.944 C 143.567 146.612,141.813 145.197,141.340 144.798 C 138.858 142.710,128.197 137.099,123.179 135.241 C 114.180 131.908,100.180 130.169,90.600 131.193 M107.200 137.409 C 125.149 139.951,142.220 149.873,152.603 163.800 C 153.259 164.680,153.888 165.490,154.001 165.600 C 155.189 166.753,159.769 175.035,161.445 179.061 C 180.017 223.670,148.538 272.979,100.398 274.687 C 88.148 275.122,73.815 271.893,65.625 266.853 C 64.505 266.164,63.496 265.600,63.384 265.600 C 63.152 265.600,57.906 262.351,57.600 262.018 C 57.490 261.898,56.590 261.178,55.600 260.418 C 26.928 238.411,20.272 197.337,40.504 167.256 C 55.119 145.526,81.415 133.759,107.200 137.409 M58.622 185.687 C 58.240 186.886,55.983 193.246,54.890 196.200 C 49.293 211.340,46.783 218.580,46.968 219.060 C 47.141 219.512,48.095 219.603,51.682 219.513 L 56.179 219.400 56.990 217.000 L 57.800 214.600 63.486 214.489 L 69.171 214.378 69.839 216.689 C 70.206 217.960,70.707 219.132,70.953 219.294 C 71.575 219.703,80.306 219.676,80.560 219.265 C 80.786 218.899,79.615 215.494,76.410 207.200 C 75.263 204.230,73.454 199.550,72.390 196.800 C 71.327 194.050,69.853 190.360,69.115 188.600 L 67.773 185.400 63.279 185.287 C 59.894 185.202,58.745 185.300,58.622 185.687 M83.947 185.500 C 83.752 186.595,84.128 219.050,84.338 219.249 C 84.482 219.387,89.603 219.603,95.717 219.731 L 106.834 219.963 107.174 219.069 C 107.361 218.577,107.644 216.614,107.803 214.706 L 108.092 211.237 100.513 211.479 L 92.934 211.721 93.022 204.160 C 93.071 200.002,93.244 194.035,93.406 190.900 L 93.703 185.200 88.851 185.200 C 86.183 185.200,83.976 185.335,83.947 185.500 M120.550 185.900 C 120.426 186.285,120.176 187.050,119.993 187.600 C 119.596 188.797,115.668 199.545,113.781 204.600 C 110.874 212.385,108.800 218.374,108.800 218.985 C 108.800 219.542,109.409 219.611,113.490 219.513 L 118.179 219.400 118.990 217.000 L 119.800 214.600 125.486 214.489 L 131.171 214.378 131.839 216.689 C 132.206 217.960,132.707 219.132,132.953 219.294 C 133.607 219.724,142.312 219.666,142.582 219.229 C 142.808 218.864,140.176 211.555,135.875 200.600 C 134.666 197.520,133.010 193.290,132.196 191.200 C 129.645 184.649,130.289 185.200,125.177 185.200 C 121.337 185.200,120.746 185.289,120.550 185.900 M64.943 200.400 C 65.491 202.050,66.063 204.075,66.214 204.900 L 66.489 206.400 63.445 206.400 C 59.839 206.400,59.947 206.760,61.845 201.066 C 63.461 196.215,63.547 196.197,64.943 200.400 M126.990 200.444 C 127.548 202.210,128.048 204.228,128.102 204.928 L 128.200 206.200 125.300 206.318 C 121.846 206.457,121.939 206.786,123.834 201.098 C 125.484 196.146,125.623 196.117,126.990 200.444 " stroke="none" fill="#f4ae0e" fill-rule="evenodd"></path><path id="path2" d="M195.608 145.700 C 187.716 166.742,187.049 168.959,188.500 169.348 C 192.356 170.381,196.028 169.415,196.813 167.160 L 197.426 165.400 201.413 165.400 L 205.400 165.400 205.959 167.262 C 206.597 169.383,207.108 169.604,211.350 169.595 C 214.606 169.587,215.600 169.288,215.600 168.316 C 215.600 167.566,208.130 147.751,206.169 143.300 L 205.244 141.200 201.270 141.200 L 197.296 141.200 195.608 145.700 M274.336 155.100 C 274.418 162.745,274.552 169.071,274.633 169.158 C 274.953 169.497,278.846 169.684,280.478 169.439 L 282.200 169.180 282.248 157.591 C 282.275 151.218,282.419 144.923,282.568 143.602 L 282.840 141.200 278.514 141.200 L 274.188 141.200 274.336 155.100 M224.200 149.549 C 217.027 151.445,214.307 161.031,219.387 166.518 C 223.156 170.589,233.179 170.941,232.879 166.991 C 232.614 163.508,232.059 162.289,230.873 162.587 C 227.740 163.375,227.263 163.325,226.012 162.073 C 224.489 160.550,224.370 158.544,225.711 156.986 C 226.669 155.871,227.477 155.732,230.235 156.207 L 231.870 156.488 232.535 154.118 C 232.901 152.814,233.200 151.539,233.200 151.284 C 233.200 149.951,227.115 148.778,224.200 149.549 M240.878 149.959 C 234.672 152.103,232.359 160.358,236.401 165.939 C 239.633 170.400,250.802 171.235,250.479 166.991 C 250.224 163.632,249.648 162.292,248.573 162.558 C 248.038 162.691,247.149 162.911,246.597 163.047 C 243.352 163.847,241.055 159.608,243.311 156.986 C 244.269 155.872,245.077 155.732,247.829 156.206 L 249.458 156.486 250.167 153.867 C 251.013 150.740,250.946 150.593,248.310 149.810 C 245.629 149.014,243.490 149.057,240.878 149.959 M259.400 149.574 C 252.050 151.363,249.487 161.193,254.946 166.656 C 258.541 170.255,266.422 170.845,270.240 167.801 L 271.367 166.902 270.628 165.263 C 269.353 162.434,268.705 162.092,266.577 163.126 C 264.566 164.104,262.680 164.233,261.232 163.494 C 259.171 162.443,259.894 162.130,265.332 161.720 C 271.746 161.236,271.600 161.310,271.600 158.564 C 271.600 152.180,265.912 147.989,259.400 149.574 M202.384 155.042 C 203.451 158.498,203.480 158.400,201.400 158.400 C 199.292 158.400,199.270 158.317,200.470 154.900 C 201.539 151.856,201.396 151.845,202.384 155.042 M262.946 155.629 C 264.386 156.762,264.284 157.034,262.223 157.553 C 258.972 158.371,258.234 157.730,260.182 155.782 C 261.376 154.588,261.606 154.575,262.946 155.629 M189.474 200.300 C 189.604 207.945,189.787 214.287,189.881 214.393 C 189.975 214.499,194.333 214.654,199.566 214.738 L 209.079 214.890 209.339 212.989 C 209.483 211.944,209.600 210.204,209.600 209.124 L 209.600 207.160 203.538 207.442 L 197.475 207.724 197.763 198.187 C 197.921 192.942,198.151 188.144,198.275 187.525 L 198.500 186.400 193.869 186.400 L 189.238 186.400 189.474 200.300 M217.736 194.760 C 209.323 196.920,208.541 211.336,216.670 214.427 C 218.450 215.103,222.082 214.869,223.534 213.984 L 224.867 213.171 225.094 214.038 C 225.308 214.856,231.458 215.076,232.240 214.293 C 232.346 214.187,232.472 209.943,232.521 204.861 L 232.610 195.621 229.926 195.011 C 226.452 194.220,226.105 194.238,225.793 195.223 C 225.543 196.010,225.485 196.017,224.515 195.381 C 223.355 194.621,219.612 194.278,217.736 194.760 M239.400 195.162 C 236.384 195.798,236.207 195.893,236.326 196.818 C 236.396 197.358,236.549 201.541,236.667 206.114 L 236.881 214.428 240.741 214.314 L 244.600 214.200 244.711 208.419 C 244.829 202.337,245.059 201.539,246.833 201.075 C 248.738 200.577,249.399 202.919,249.114 209.152 C 248.857 214.756,248.591 214.400,253.033 214.400 L 256.800 214.400 256.800 206.380 C 256.800 197.149,256.609 196.420,253.873 195.177 C 251.564 194.129,249.330 194.200,246.968 195.398 C 244.546 196.627,244.544 196.627,244.236 195.400 C 243.945 194.243,243.793 194.236,239.400 195.162 M263.756 195.397 C 253.523 200.497,261.636 215.973,272.147 211.403 C 272.809 211.115,272.842 211.175,272.435 211.935 C 271.381 213.903,268.486 214.473,264.964 213.404 C 262.239 212.578,262.224 212.583,261.683 214.606 C 260.575 218.749,261.548 219.351,269.400 219.381 C 279.218 219.417,280.140 218.146,280.332 204.300 L 280.463 194.800 278.732 194.797 C 277.779 194.795,276.082 194.683,274.959 194.548 C 273.126 194.327,272.897 194.387,272.702 195.130 C 272.486 195.957,272.485 195.957,270.958 195.179 C 268.835 194.096,266.206 194.176,263.756 195.397 M314.494 194.768 C 306.150 196.897,305.397 211.357,313.470 214.427 C 315.250 215.103,318.882 214.869,320.334 213.984 L 321.667 213.171 321.880 213.985 C 322.104 214.841,325.307 215.080,328.143 214.453 L 329.287 214.200 329.343 204.909 L 329.400 195.619 326.721 195.009 C 323.252 194.220,322.905 194.238,322.593 195.223 C 322.343 196.010,322.285 196.017,321.315 195.381 C 320.146 194.615,316.410 194.279,314.494 194.768 M337.510 194.879 C 332.251 196.276,330.231 204.219,333.899 209.080 C 335.880 211.706,340.749 212.748,344.745 211.402 C 345.616 211.108,345.655 211.151,345.234 211.937 C 344.181 213.903,341.284 214.472,337.764 213.404 C 335.039 212.578,335.024 212.583,334.483 214.606 C 333.375 218.749,334.348 219.351,342.200 219.381 C 352.018 219.417,352.940 218.146,353.132 204.300 L 353.263 194.800 351.890 194.800 C 351.135 194.800,349.438 194.687,348.119 194.549 C 345.920 194.319,345.702 194.368,345.503 195.128 C 345.286 195.958,345.286 195.958,343.758 195.179 C 342.123 194.345,339.916 194.239,337.510 194.879 M362.938 194.859 C 356.427 196.321,353.772 206.747,358.635 211.755 C 362.131 215.355,370.444 216.028,374.220 213.017 L 375.367 212.102 374.628 210.463 C 373.353 207.634,372.705 207.292,370.577 208.326 C 368.566 209.304,366.680 209.433,365.232 208.694 C 363.171 207.643,363.894 207.330,369.332 206.920 C 375.746 206.436,375.600 206.510,375.600 203.764 C 375.600 197.168,370.047 193.263,362.938 194.859 M284.737 196.300 C 283.948 198.259,284.084 208.698,284.927 210.884 C 286.305 214.456,290.839 215.592,294.962 213.400 C 297.257 212.179,297.200 212.180,297.200 213.365 C 297.200 214.561,299.216 215.016,302.714 214.610 L 305.000 214.345 305.000 204.872 L 305.000 195.400 301.150 195.286 C 296.537 195.150,296.813 194.730,296.805 201.891 C 296.799 207.320,296.232 208.446,293.809 207.838 C 292.426 207.491,292.184 206.286,292.292 200.300 L 292.385 195.200 288.783 195.200 C 285.227 195.200,285.174 195.214,284.737 196.300 M271.569 201.036 C 273.639 202.777,272.579 206.400,270.000 206.400 C 267.033 206.400,266.283 201.948,269.000 200.462 C 270.111 199.854,270.185 199.871,271.569 201.036 M343.726 200.465 C 346.494 201.940,345.798 206.400,342.800 206.400 C 339.848 206.400,339.109 202.026,341.800 200.483 C 342.798 199.911,342.687 199.912,343.726 200.465 M366.946 200.829 C 368.386 201.962,368.284 202.234,366.223 202.753 C 362.972 203.571,362.234 202.930,364.182 200.982 C 365.376 199.788,365.606 199.775,366.946 200.829 M222.962 201.255 C 223.512 201.506,224.239 202.297,224.579 203.013 C 226.257 206.548,222.440 210.077,219.798 207.434 C 216.962 204.599,219.485 199.671,222.962 201.255 M319.987 201.393 C 323.464 203.191,321.356 209.453,317.705 208.169 C 314.970 207.208,314.584 202.795,317.115 201.421 C 318.486 200.677,318.599 200.676,319.987 201.393 M276.300 231.097 L 273.200 231.234 273.200 235.770 L 273.200 240.306 271.700 239.770 C 264.830 237.319,258.599 242.805,259.333 250.660 C 259.984 257.632,266.119 261.567,272.307 258.981 C 273.264 258.581,273.837 258.511,273.927 258.781 C 274.011 259.032,275.535 259.200,277.733 259.200 L 281.400 259.199 281.400 245.000 L 281.400 230.800 280.400 230.880 C 279.850 230.925,278.005 231.022,276.300 231.097 M197.017 231.900 C 194.223 239.168,187.600 257.762,187.600 258.335 C 187.600 259.288,188.615 259.587,191.874 259.595 C 195.441 259.602,196.180 259.216,196.794 257.020 L 197.311 255.173 201.356 255.287 L 205.400 255.400 205.959 257.262 C 206.597 259.383,207.108 259.604,211.350 259.595 C 214.596 259.587,215.600 259.287,215.600 258.326 C 215.600 257.584,208.125 237.753,206.167 233.300 L 205.244 231.200 201.265 231.200 C 197.844 231.200,197.248 231.298,197.017 231.900 M224.200 239.549 C 212.761 242.573,215.121 259.607,226.979 259.598 C 232.623 259.593,233.411 258.987,232.639 255.244 C 232.022 252.250,231.907 252.128,230.262 252.723 C 227.073 253.876,224.800 252.412,224.800 249.203 C 224.800 246.634,226.683 245.596,230.235 246.207 L 231.870 246.488 232.535 244.118 C 232.901 242.814,233.200 241.539,233.200 241.284 C 233.200 239.951,227.115 238.778,224.200 239.549 M241.294 239.592 C 232.966 241.567,232.205 256.160,240.270 259.227 C 242.050 259.903,245.682 259.669,247.134 258.784 L 248.467 257.971 248.680 258.785 C 248.904 259.640,252.116 259.880,254.935 259.253 L 256.070 259.000 256.135 249.709 L 256.200 240.418 253.521 239.809 C 250.066 239.024,249.705 239.040,249.402 239.995 C 249.150 240.789,249.146 240.789,247.591 239.995 C 245.987 239.177,243.668 239.029,241.294 239.592 M291.000 239.550 C 282.649 241.753,280.921 253.955,288.344 258.306 C 291.732 260.291,299.089 260.011,301.836 257.791 L 303.000 256.851 301.814 254.626 C 300.483 252.129,300.375 252.088,297.944 253.191 C 295.940 254.100,294.220 254.202,292.832 253.494 C 290.795 252.455,291.513 252.144,296.974 251.703 C 303.431 251.181,303.200 251.297,303.200 248.564 C 303.200 242.231,297.315 237.883,291.000 239.550 M310.400 239.591 C 309.850 239.782,308.521 240.056,307.446 240.201 L 305.493 240.465 305.746 242.891 C 305.886 244.226,306.000 248.420,306.000 252.213 L 306.000 259.108 308.184 259.381 C 309.386 259.531,311.202 259.529,312.221 259.376 L 314.074 259.098 313.937 253.117 C 313.788 246.598,313.983 246.000,316.262 246.000 C 317.723 246.000,318.000 247.178,318.000 253.374 L 318.000 259.200 321.997 259.200 L 325.994 259.200 325.771 253.900 C 325.533 248.235,325.749 247.246,327.471 246.114 C 329.439 244.820,330.000 246.395,330.000 253.214 L 330.000 259.229 333.900 259.114 L 337.800 259.000 337.832 251.200 C 337.868 242.562,337.641 241.469,335.563 240.242 C 333.313 238.913,330.149 238.951,327.428 240.339 L 325.055 241.549 323.916 240.591 C 321.881 238.878,317.933 238.796,315.277 240.411 C 313.667 241.391,313.683 241.392,313.528 240.300 C 313.385 239.294,312.102 239.003,310.400 239.591 M341.200 244.935 L 341.200 249.870 344.043 253.978 C 347.338 258.740,347.287 259.194,343.420 259.515 C 340.837 259.729,340.762 259.928,342.074 263.092 L 342.947 265.200 346.866 265.200 L 350.785 265.200 353.794 261.420 C 361.159 252.169,362.426 249.103,361.654 242.400 C 361.357 239.828,361.193 239.757,356.552 240.192 L 353.674 240.461 353.726 244.140 C 353.775 247.700,353.398 249.029,351.733 251.164 C 350.631 252.577,348.633 247.028,348.957 243.452 L 349.224 240.508 347.712 240.259 C 346.880 240.121,345.075 240.007,343.700 240.004 L 341.200 240.000 341.200 244.935 M202.564 245.573 C 203.415 248.480,203.448 248.400,201.400 248.400 C 199.313 248.400,199.292 248.327,200.461 245.122 C 201.432 242.457,201.666 242.507,202.564 245.573 M294.546 245.629 C 295.986 246.762,295.884 247.034,293.823 247.553 C 290.572 248.371,289.834 247.730,291.782 245.782 C 292.976 244.588,293.206 244.575,294.546 245.629 M247.274 246.749 C 250.178 249.344,247.615 254.429,244.190 252.868 C 241.698 251.733,241.523 247.519,243.915 246.221 C 245.444 245.391,245.820 245.450,247.274 246.749 M271.940 246.611 C 274.591 248.841,273.348 253.200,270.062 253.200 C 267.032 253.200,266.412 247.176,269.321 246.005 C 270.589 245.494,270.622 245.501,271.940 246.611 " stroke="none" fill="#0d64f4" fill-rule="evenodd"></path><path id="path3" d="M197.067 141.067 C 196.920 141.213,196.803 141.528,196.806 141.767 C 196.810 142.048,196.916 142.036,197.110 141.733 C 197.273 141.475,198.035 141.189,198.803 141.097 L 200.200 140.928 198.767 140.864 C 197.978 140.829,197.213 140.920,197.067 141.067 M202.800 140.956 C 202.800 141.042,203.417 141.185,204.172 141.273 C 204.927 141.361,205.456 141.290,205.348 141.116 C 205.155 140.803,202.800 140.655,202.800 140.956 M273.693 142.400 C 273.693 143.170,273.775 143.485,273.876 143.100 C 273.976 142.715,273.976 142.085,273.876 141.700 C 273.775 141.315,273.693 141.630,273.693 142.400 M282.520 145.200 C 282.520 146.410,282.595 146.905,282.687 146.300 C 282.778 145.695,282.778 144.705,282.687 144.100 C 282.595 143.495,282.520 143.990,282.520 145.200 M274.191 157.295 C 274.199 168.570,274.248 169.394,274.908 169.454 C 275.391 169.498,275.425 169.459,275.014 169.331 C 274.499 169.171,274.395 167.414,274.297 157.172 L 274.182 145.200 274.191 157.295 M267.600 150.525 C 267.600 150.594,268.185 151.179,268.900 151.825 L 270.200 153.000 269.025 151.700 C 267.930 150.488,267.600 150.216,267.600 150.525 M254.575 152.100 L 253.400 153.400 254.700 152.225 C 255.415 151.579,256.000 150.994,256.000 150.925 C 256.000 150.616,255.670 150.888,254.575 152.100 M282.164 159.800 C 282.163 163.540,282.223 165.124,282.297 163.320 C 282.371 161.515,282.372 158.455,282.298 156.520 C 282.225 154.584,282.164 156.060,282.164 159.800 M271.714 158.600 C 271.717 159.700,271.795 160.103,271.887 159.495 C 271.979 158.886,271.977 157.986,271.882 157.495 C 271.787 157.003,271.711 157.500,271.714 158.600 M264.900 161.876 C 265.285 161.976,265.915 161.976,266.300 161.876 C 266.685 161.775,266.370 161.693,265.600 161.693 C 264.830 161.693,264.515 161.775,264.900 161.876 M260.000 162.320 C 260.000 162.785,260.890 163.602,261.380 163.588 C 261.611 163.581,261.463 163.380,261.052 163.141 C 260.448 162.790,260.410 162.640,260.852 162.359 C 261.283 162.086,261.250 162.011,260.700 162.006 C 260.315 162.003,260.000 162.144,260.000 162.320 M197.462 165.500 C 197.360 165.665,199.132 165.800,201.400 165.800 C 203.668 165.800,205.440 165.665,205.338 165.500 C 205.236 165.335,203.464 165.200,201.400 165.200 C 199.336 165.200,197.564 165.335,197.462 165.500 M254.070 166.351 C 254.581 166.984,255.360 167.725,255.800 167.998 C 256.240 168.271,255.888 167.753,255.019 166.847 C 253.181 164.933,252.734 164.699,254.070 166.351 M187.334 168.396 C 187.379 169.072,187.657 169.418,188.200 169.473 C 188.776 169.531,188.811 169.498,188.325 169.352 C 187.953 169.242,187.564 168.757,187.459 168.275 C 187.300 167.542,187.280 167.561,187.334 168.396 M215.632 168.271 C 215.614 168.750,215.285 169.224,214.900 169.324 C 214.244 169.496,214.245 169.510,214.913 169.554 C 215.688 169.604,216.198 168.731,215.869 167.913 C 215.756 167.631,215.649 167.792,215.632 168.271 M226.105 169.887 C 226.714 169.979,227.614 169.977,228.105 169.882 C 228.597 169.787,228.100 169.711,227.000 169.714 C 225.900 169.717,225.497 169.795,226.105 169.887 M243.705 169.887 C 244.314 169.979,245.214 169.977,245.705 169.882 C 246.197 169.787,245.700 169.711,244.600 169.714 C 243.500 169.717,243.097 169.795,243.705 169.887 M261.900 169.889 C 262.615 169.978,263.785 169.978,264.500 169.889 C 265.215 169.801,264.630 169.728,263.200 169.728 C 261.770 169.728,261.185 169.801,261.900 169.889 M196.305 186.283 C 196.802 186.379,197.522 186.375,197.905 186.275 C 198.287 186.175,197.880 186.096,197.000 186.101 C 196.120 186.105,195.807 186.187,196.305 186.283 M198.120 190.000 C 198.120 191.210,198.195 191.705,198.287 191.100 C 198.378 190.495,198.378 189.505,198.287 188.900 C 198.195 188.295,198.120 188.790,198.120 190.000 M189.389 204.400 L 189.400 214.600 191.000 214.634 L 192.600 214.668 191.107 214.512 L 189.614 214.355 189.496 204.277 L 189.379 194.200 189.389 204.400 M272.400 194.982 C 272.400 195.578,272.298 195.613,271.790 195.192 C 271.455 194.914,271.103 194.763,271.009 194.858 C 270.914 194.953,271.192 195.253,271.627 195.524 C 272.421 196.020,273.293 195.160,272.649 194.516 C 272.512 194.379,272.400 194.589,272.400 194.982 M276.505 194.687 C 277.114 194.779,278.014 194.777,278.505 194.682 C 278.997 194.587,278.500 194.511,277.400 194.514 C 276.300 194.517,275.897 194.595,276.505 194.687 M345.200 194.982 C 345.200 195.578,345.098 195.613,344.590 195.192 C 344.255 194.914,343.903 194.763,343.809 194.858 C 343.714 194.953,343.992 195.253,344.427 195.524 C 345.221 196.020,346.093 195.160,345.449 194.516 C 345.312 194.379,345.200 194.589,345.200 194.982 M349.500 194.682 C 349.995 194.778,350.805 194.778,351.300 194.682 C 351.795 194.587,351.390 194.509,350.400 194.509 C 349.410 194.509,349.005 194.587,349.500 194.682 M262.600 195.600 C 261.036 196.636,261.592 196.637,263.290 195.601 C 264.011 195.162,264.420 194.804,264.200 194.804 C 263.980 194.805,263.260 195.163,262.600 195.600 M280.569 203.000 C 280.570 207.620,280.628 209.455,280.699 207.078 C 280.770 204.701,280.769 200.921,280.698 198.678 C 280.627 196.435,280.569 198.380,280.569 203.000 M353.369 203.000 C 353.370 207.620,353.428 209.455,353.499 207.078 C 353.570 204.701,353.569 200.921,353.498 198.678 C 353.427 196.435,353.369 198.380,353.369 203.000 M232.076 195.448 C 232.448 195.559,232.829 196.090,232.925 196.630 C 233.076 197.487,233.091 197.472,233.049 196.508 C 233.014 195.720,232.773 195.384,232.200 195.326 C 231.623 195.268,231.588 195.302,232.076 195.448 M292.493 196.400 C 292.493 197.170,292.575 197.485,292.676 197.100 C 292.776 196.715,292.776 196.085,292.676 195.700 C 292.575 195.315,292.493 195.630,292.493 196.400 M255.855 196.600 C 256.780 198.179,256.800 198.203,256.800 197.711 C 256.800 197.479,256.429 196.864,255.976 196.344 L 255.153 195.400 255.855 196.600 M371.600 195.725 C 371.600 195.794,372.185 196.379,372.900 197.025 L 374.200 198.200 373.025 196.900 C 371.930 195.688,371.600 195.416,371.600 195.725 M358.575 197.300 L 357.400 198.600 358.700 197.425 C 359.415 196.779,360.000 196.194,360.000 196.125 C 360.000 195.816,359.670 196.088,358.575 197.300 M197.759 202.000 C 197.759 205.190,197.821 206.495,197.897 204.900 C 197.973 203.305,197.973 200.695,197.897 199.100 C 197.821 197.505,197.759 198.810,197.759 202.000 M284.101 199.400 C 284.105 200.280,284.187 200.593,284.283 200.095 C 284.379 199.598,284.375 198.878,284.275 198.495 C 284.175 198.113,284.096 198.520,284.101 199.400 M256.969 206.400 C 256.969 210.910,257.027 212.755,257.098 210.500 C 257.170 208.245,257.170 204.555,257.098 202.300 C 257.027 200.045,256.969 201.890,256.969 206.400 M232.493 200.400 C 232.493 201.170,232.575 201.485,232.676 201.100 C 232.776 200.715,232.776 200.085,232.676 199.700 C 232.575 199.315,232.493 199.630,232.493 200.400 M292.131 202.200 C 292.133 203.740,292.205 204.321,292.292 203.491 C 292.379 202.661,292.377 201.401,292.289 200.691 C 292.200 199.981,292.129 200.660,292.131 202.200 M304.954 205.600 C 304.954 208.350,305.018 209.475,305.096 208.100 C 305.174 206.725,305.174 204.475,305.096 203.100 C 305.018 201.725,304.954 202.850,304.954 205.600 M375.720 203.600 C 375.720 204.810,375.795 205.305,375.887 204.700 C 375.978 204.095,375.978 203.105,375.887 202.500 C 375.795 201.895,375.720 202.390,375.720 203.600 M248.950 207.400 C 248.951 209.820,249.016 210.758,249.096 209.485 C 249.176 208.212,249.175 206.232,249.094 205.085 C 249.014 203.938,248.949 204.980,248.950 207.400 M284.093 207.600 C 284.093 208.370,284.175 208.685,284.276 208.300 C 284.376 207.915,284.376 207.285,284.276 206.900 C 284.175 206.515,284.093 206.830,284.093 207.600 M368.900 207.076 C 369.285 207.176,369.915 207.176,370.300 207.076 C 370.685 206.975,370.370 206.893,369.600 206.893 C 368.830 206.893,368.515 206.975,368.900 207.076 M202.105 207.487 C 202.714 207.579,203.614 207.577,204.105 207.482 C 204.597 207.387,204.100 207.311,203.000 207.314 C 201.900 207.317,201.497 207.395,202.105 207.487 M209.709 208.800 C 209.709 209.790,209.787 210.195,209.882 209.700 C 209.978 209.205,209.978 208.395,209.882 207.900 C 209.787 207.405,209.709 207.810,209.709 208.800 M232.528 209.600 C 232.528 211.030,232.601 211.615,232.689 210.900 C 232.778 210.185,232.778 209.015,232.689 208.300 C 232.601 207.585,232.528 208.170,232.528 209.600 M329.324 209.400 C 329.326 210.720,329.401 211.212,329.490 210.493 C 329.579 209.774,329.577 208.694,329.486 208.093 C 329.395 207.492,329.322 208.080,329.324 209.400 M364.000 207.520 C 364.000 207.985,364.890 208.802,365.380 208.788 C 365.611 208.781,365.463 208.580,365.052 208.341 C 364.448 207.990,364.410 207.840,364.852 207.559 C 365.283 207.286,365.250 207.211,364.700 207.206 C 364.315 207.203,364.000 207.344,364.000 207.520 M266.900 212.287 C 267.505 212.378,268.495 212.378,269.100 212.287 C 269.705 212.195,269.210 212.120,268.000 212.120 C 266.790 212.120,266.295 212.195,266.900 212.287 M339.700 212.287 C 340.305 212.378,341.295 212.378,341.900 212.287 C 342.505 212.195,342.010 212.120,340.800 212.120 C 339.590 212.120,339.095 212.195,339.700 212.287 M296.762 213.500 C 296.961 214.250,297.334 214.617,297.933 214.653 C 298.700 214.700,298.710 214.683,298.006 214.525 C 297.469 214.405,297.200 214.020,297.200 213.372 C 297.200 212.837,297.036 212.400,296.835 212.400 C 296.632 212.400,296.599 212.889,296.762 213.500 M223.819 213.835 C 223.395 214.146,223.251 214.400,223.500 214.400 C 223.749 214.400,224.076 214.201,224.226 213.957 C 224.417 213.649,224.604 213.679,224.844 214.057 C 225.074 214.420,225.190 214.442,225.194 214.124 C 225.204 213.349,224.645 213.232,223.819 213.835 M320.619 213.835 C 320.195 214.146,320.051 214.400,320.300 214.400 C 320.549 214.400,320.876 214.201,321.026 213.957 C 321.217 213.649,321.404 213.679,321.644 214.057 C 321.874 214.420,321.990 214.442,321.994 214.124 C 322.004 213.349,321.445 213.232,320.619 213.835 M232.400 213.933 C 232.400 214.190,231.905 214.425,231.300 214.454 C 230.290 214.504,230.278 214.524,231.146 214.688 C 232.119 214.873,233.160 214.227,232.673 213.740 C 232.523 213.590,232.400 213.677,232.400 213.933 M241.000 214.400 L 237.400 214.649 240.876 214.724 C 242.849 214.767,244.460 214.627,244.600 214.400 C 244.736 214.180,244.792 214.034,244.724 214.076 C 244.656 214.117,242.980 214.263,241.000 214.400 M328.200 214.400 L 327.000 214.705 328.076 214.753 C 328.668 214.779,329.264 214.620,329.400 214.400 C 329.536 214.180,329.592 214.021,329.524 214.047 C 329.456 214.073,328.860 214.232,328.200 214.400 M251.312 214.695 C 252.364 214.777,253.984 214.776,254.912 214.692 C 255.840 214.608,254.980 214.541,253.000 214.542 C 251.020 214.543,250.260 214.612,251.312 214.695 M289.900 214.682 C 290.395 214.778,291.205 214.778,291.700 214.682 C 292.195 214.587,291.790 214.509,290.800 214.509 C 289.810 214.509,289.405 214.587,289.900 214.682 M204.112 215.095 C 205.164 215.177,206.784 215.176,207.712 215.092 C 208.640 215.008,207.780 214.941,205.800 214.942 C 203.820 214.943,203.060 215.012,204.112 215.095 M218.905 215.087 C 219.514 215.179,220.414 215.177,220.905 215.082 C 221.397 214.987,220.900 214.911,219.800 214.914 C 218.700 214.917,218.297 214.995,218.905 215.087 M315.705 215.087 C 316.314 215.179,317.214 215.177,317.705 215.082 C 318.197 214.987,317.700 214.911,316.600 214.914 C 315.500 214.917,315.097 214.995,315.705 215.087 M365.900 215.089 C 366.615 215.178,367.785 215.178,368.500 215.089 C 369.215 215.001,368.630 214.928,367.200 214.928 C 365.770 214.928,365.185 215.001,365.900 215.089 M260.825 217.251 C 260.797 217.991,261.886 219.047,262.276 218.657 C 262.418 218.516,262.318 218.400,262.054 218.400 C 261.790 218.400,261.411 217.995,261.212 217.500 C 260.968 216.891,260.843 216.810,260.825 217.251 M333.625 217.251 C 333.597 217.991,334.686 219.047,335.076 218.657 C 335.218 218.516,335.118 218.400,334.854 218.400 C 334.590 218.400,334.211 217.995,334.012 217.500 C 333.768 216.891,333.643 216.810,333.625 217.251 M268.700 219.889 C 269.415 219.978,270.585 219.978,271.300 219.889 C 272.015 219.801,271.430 219.728,270.000 219.728 C 268.570 219.728,267.985 219.801,268.700 219.889 M341.500 219.889 C 342.215 219.978,343.385 219.978,344.100 219.889 C 344.815 219.801,344.230 219.728,342.800 219.728 C 341.370 219.728,340.785 219.801,341.500 219.889 M197.067 231.067 C 196.920 231.213,196.803 231.528,196.806 231.767 C 196.810 232.048,196.916 232.036,197.110 231.733 C 197.273 231.475,198.035 231.189,198.803 231.097 L 200.200 230.928 198.767 230.864 C 197.978 230.829,197.213 230.920,197.067 231.067 M202.800 230.956 C 202.800 231.042,203.417 231.185,204.172 231.273 C 204.927 231.361,205.456 231.290,205.348 231.116 C 205.155 230.803,202.800 230.655,202.800 230.956 M277.105 231.083 C 277.602 231.179,278.322 231.175,278.705 231.075 C 279.087 230.975,278.680 230.896,277.800 230.901 C 276.920 230.905,276.607 230.987,277.105 231.083 M281.693 232.000 C 281.693 232.770,281.775 233.085,281.876 232.700 C 281.976 232.315,281.976 231.685,281.876 231.300 C 281.775 230.915,281.693 231.230,281.693 232.000 M281.328 237.600 C 281.328 239.030,281.401 239.615,281.489 238.900 C 281.578 238.185,281.578 237.015,281.489 236.300 C 281.401 235.585,281.328 236.170,281.328 237.600 M262.487 241.100 C 261.530 242.035,261.514 242.081,262.381 241.406 C 264.088 240.076,264.169 240.000,263.886 240.000 C 263.736 240.000,263.106 240.495,262.487 241.100 M324.296 240.799 C 325.042 241.608,325.275 241.679,325.696 241.226 C 326.103 240.787,326.099 240.740,325.675 240.981 C 325.374 241.151,324.776 240.969,324.275 240.554 C 323.419 239.846,323.420 239.851,324.296 240.799 M340.954 244.800 C 340.954 247.550,341.018 248.675,341.096 247.300 C 341.174 245.925,341.174 243.675,341.096 242.300 C 341.018 240.925,340.954 242.050,340.954 244.800 M354.305 240.283 C 354.802 240.379,355.522 240.375,355.905 240.275 C 356.287 240.175,355.880 240.096,355.000 240.101 C 354.120 240.105,353.807 240.187,354.305 240.283 M300.400 241.800 C 301.146 242.570,301.847 243.200,301.957 243.200 C 302.067 243.200,301.546 242.570,300.800 241.800 C 300.054 241.030,299.353 240.400,299.243 240.400 C 299.133 240.400,299.654 241.030,300.400 241.800 M219.375 242.100 L 218.200 243.400 219.500 242.225 C 220.215 241.579,220.800 240.994,220.800 240.925 C 220.800 240.616,220.470 240.888,219.375 242.100 M286.175 242.100 L 285.000 243.400 286.300 242.225 C 287.015 241.579,287.600 240.994,287.600 240.925 C 287.600 240.616,287.270 240.888,286.175 242.100 M361.709 242.400 C 361.709 243.390,361.787 243.795,361.882 243.300 C 361.978 242.805,361.978 241.995,361.882 241.500 C 361.787 241.005,361.709 241.410,361.709 242.400 M348.924 245.000 C 348.926 246.320,349.001 246.812,349.090 246.093 C 349.179 245.374,349.177 244.294,349.086 243.693 C 348.995 243.092,348.922 243.680,348.924 245.000 M256.093 244.800 C 256.093 245.570,256.175 245.885,256.276 245.500 C 256.376 245.115,256.376 244.485,256.276 244.100 C 256.175 243.715,256.093 244.030,256.093 244.800 M305.701 245.000 C 305.705 245.880,305.787 246.193,305.883 245.695 C 305.979 245.198,305.975 244.478,305.875 244.095 C 305.775 243.713,305.696 244.120,305.701 245.000 M353.693 244.800 C 353.693 245.570,353.775 245.885,353.876 245.500 C 353.976 245.115,353.976 244.485,353.876 244.100 C 353.775 243.715,353.693 244.030,353.693 244.800 M314.014 247.174 C 313.786 247.599,313.618 248.364,313.641 248.874 C 313.674 249.617,313.740 249.556,313.977 248.565 C 314.139 247.886,314.402 247.121,314.560 246.865 C 314.718 246.609,314.753 246.400,314.638 246.400 C 314.522 246.400,314.242 246.748,314.014 247.174 M361.709 248.000 C 361.709 248.990,361.787 249.395,361.882 248.900 C 361.978 248.405,361.978 247.595,361.882 247.100 C 361.787 246.605,361.709 247.010,361.709 248.000 M303.314 248.600 C 303.317 249.700,303.395 250.103,303.487 249.495 C 303.579 248.886,303.577 247.986,303.482 247.495 C 303.387 247.003,303.311 247.500,303.314 248.600 M337.746 251.000 C 337.747 253.200,337.814 254.049,337.895 252.887 C 337.976 251.724,337.976 249.924,337.893 248.887 C 337.811 247.849,337.745 248.800,337.746 251.000 M267.293 249.600 C 267.293 250.370,267.375 250.685,267.476 250.300 C 267.576 249.915,267.576 249.285,267.476 248.900 C 267.375 248.515,267.293 248.830,267.293 249.600 M325.744 252.000 C 325.744 254.090,325.812 254.945,325.894 253.900 C 325.976 252.855,325.976 251.145,325.894 250.100 C 325.812 249.055,325.744 249.910,325.744 252.000 M268.488 252.213 C 269.086 252.843,269.647 253.277,269.735 253.179 C 269.823 253.080,269.333 252.565,268.647 252.034 L 267.400 251.069 268.488 252.213 M296.500 251.876 C 296.885 251.976,297.515 251.976,297.900 251.876 C 298.285 251.775,297.970 251.693,297.200 251.693 C 296.430 251.693,296.115 251.775,296.500 251.876 M291.600 252.320 C 291.600 252.785,292.490 253.602,292.980 253.588 C 293.211 253.581,293.063 253.380,292.652 253.141 C 292.048 252.790,292.010 252.640,292.452 252.359 C 292.883 252.086,292.850 252.011,292.300 252.006 C 291.915 252.003,291.600 252.144,291.600 252.320 M256.124 254.600 C 256.126 255.920,256.201 256.412,256.290 255.693 C 256.379 254.974,256.377 253.894,256.286 253.293 C 256.195 252.692,256.122 253.280,256.124 254.600 M281.314 255.000 C 281.317 256.100,281.395 256.503,281.487 255.895 C 281.579 255.286,281.577 254.386,281.482 253.895 C 281.387 253.403,281.311 253.900,281.314 255.000 M260.012 254.694 C 260.005 254.965,260.495 255.694,261.100 256.313 C 261.705 256.932,261.910 257.070,261.555 256.619 C 261.200 256.169,260.710 255.440,260.467 255.000 C 260.223 254.560,260.019 254.422,260.012 254.694 M197.200 255.500 C 197.200 255.665,199.073 255.800,201.362 255.800 C 203.651 255.800,205.440 255.665,205.338 255.500 C 205.236 255.335,203.363 255.200,201.176 255.200 C 198.989 255.200,197.200 255.335,197.200 255.500 M329.714 257.000 C 329.717 258.100,329.795 258.503,329.887 257.895 C 329.979 257.286,329.977 256.386,329.882 255.895 C 329.787 255.403,329.711 255.900,329.714 257.000 M317.761 257.697 L 317.800 259.400 321.800 259.424 L 325.800 259.448 321.922 259.310 L 318.045 259.172 317.883 257.583 L 317.722 255.994 317.761 257.697 M187.334 258.396 C 187.379 259.072,187.657 259.418,188.200 259.473 C 188.776 259.531,188.811 259.498,188.325 259.352 C 187.953 259.242,187.564 258.757,187.459 258.275 C 187.300 257.542,187.280 257.561,187.334 258.396 M215.632 258.271 C 215.614 258.750,215.285 259.224,214.900 259.324 C 214.244 259.496,214.245 259.510,214.913 259.554 C 215.688 259.604,216.198 258.731,215.869 257.913 C 215.756 257.631,215.649 257.792,215.632 258.271 M247.419 258.635 C 246.995 258.946,246.851 259.200,247.100 259.200 C 247.349 259.200,247.676 259.001,247.826 258.757 C 248.017 258.449,248.204 258.479,248.444 258.857 C 248.674 259.220,248.790 259.242,248.794 258.924 C 248.804 258.149,248.245 258.032,247.419 258.635 M354.975 259.868 C 354.359 260.676,354.059 261.211,354.309 261.056 C 354.821 260.740,356.553 258.400,356.275 258.400 C 356.176 258.400,355.591 259.061,354.975 259.868 M255.000 259.200 L 253.800 259.505 254.876 259.553 C 255.468 259.579,256.064 259.420,256.200 259.200 C 256.336 258.980,256.392 258.821,256.324 258.847 C 256.256 258.873,255.660 259.032,255.000 259.200 M334.000 259.200 L 330.200 259.447 333.876 259.523 C 335.983 259.567,337.658 259.429,337.800 259.200 C 337.936 258.980,337.992 258.834,337.924 258.877 C 337.856 258.919,336.090 259.064,334.000 259.200 M276.100 259.494 C 277.145 259.576,278.855 259.576,279.900 259.494 C 280.945 259.412,280.090 259.344,278.000 259.344 C 275.910 259.344,275.055 259.412,276.100 259.494 M306.500 259.476 C 306.885 259.576,307.515 259.576,307.900 259.476 C 308.285 259.375,307.970 259.293,307.200 259.293 C 306.430 259.293,306.115 259.375,306.500 259.476 M226.105 259.887 C 226.714 259.979,227.614 259.977,228.105 259.882 C 228.597 259.787,228.100 259.711,227.000 259.714 C 225.900 259.717,225.497 259.795,226.105 259.887 M242.505 259.887 C 243.114 259.979,244.014 259.977,244.505 259.882 C 244.997 259.787,244.500 259.711,243.400 259.714 C 242.300 259.717,241.897 259.795,242.505 259.887 M267.705 259.887 C 268.314 259.979,269.214 259.977,269.705 259.882 C 270.197 259.787,269.700 259.711,268.600 259.714 C 267.500 259.717,267.097 259.795,267.705 259.887 M293.500 259.889 C 294.215 259.978,295.385 259.978,296.100 259.889 C 296.815 259.801,296.230 259.728,294.800 259.728 C 293.370 259.728,292.785 259.801,293.500 259.889 M352.155 263.481 C 351.307 264.516,350.822 265.234,351.077 265.076 C 351.621 264.740,354.155 261.600,353.882 261.600 C 353.780 261.600,353.003 262.447,352.155 263.481 M342.502 264.800 C 342.630 265.274,343.416 265.406,346.232 265.427 L 349.800 265.454 346.413 265.310 C 344.381 265.223,342.888 264.972,342.682 264.682 C 342.439 264.340,342.386 264.374,342.502 264.800 " stroke="none" fill="#9dbdf8" fill-rule="evenodd"></path><path id="path4" d="M91.700 131.076 C 92.085 131.176,92.715 131.176,93.100 131.076 C 93.485 130.975,93.170 130.893,92.400 130.893 C 91.630 130.893,91.315 130.975,91.700 131.076 M126.433 136.563 C 126.776 136.898,131.200 138.748,131.200 138.556 C 131.200 138.446,130.205 137.916,128.989 137.378 C 126.916 136.461,126.046 136.184,126.433 136.563 M92.300 137.082 C 92.795 137.178,93.605 137.178,94.100 137.082 C 94.595 136.987,94.190 136.909,93.200 136.909 C 92.210 136.909,91.805 136.987,92.300 137.082 M101.500 137.082 C 101.995 137.178,102.805 137.178,103.300 137.082 C 103.795 136.987,103.390 136.909,102.400 136.909 C 101.410 136.909,101.005 136.987,101.500 137.082 M64.300 138.427 C 63.475 138.863,62.800 139.308,62.800 139.418 C 62.800 139.596,65.959 138.119,66.367 137.751 C 66.827 137.334,65.625 137.728,64.300 138.427 M133.600 140.021 C 134.642 140.730,136.400 141.628,136.400 141.450 C 136.400 141.228,133.639 139.598,133.277 139.606 C 133.125 139.609,133.270 139.796,133.600 140.021 M57.300 142.446 C 55.937 143.319,55.495 143.906,56.700 143.243 C 57.618 142.739,59.056 141.627,58.800 141.619 C 58.690 141.616,58.015 141.988,57.300 142.446 M67.500 143.627 C 66.675 144.063,66.000 144.508,66.000 144.618 C 66.000 144.796,69.159 143.319,69.567 142.951 C 70.027 142.534,68.825 142.928,67.500 143.627 M143.440 146.467 C 144.958 147.604,148.074 150.396,150.364 152.670 C 152.654 154.945,154.589 156.744,154.665 156.668 C 155.126 156.207,141.946 144.400,140.971 144.400 C 140.811 144.400,141.923 145.330,143.440 146.467 M136.800 148.927 C 136.800 149.024,137.835 149.881,139.100 150.830 C 140.365 151.779,141.183 152.287,140.918 151.959 C 140.375 151.285,136.800 148.654,136.800 148.927 M44.497 152.876 C 42.474 154.897,40.904 156.637,41.009 156.742 C 41.114 156.847,41.245 156.853,41.300 156.754 C 41.355 156.656,43.016 154.916,44.992 152.888 C 46.967 150.859,48.492 149.200,48.380 149.200 C 48.268 149.200,46.521 150.854,44.497 152.876 M54.246 152.209 C 52.512 153.634,51.210 154.800,51.353 154.800 C 51.638 154.800,57.600 149.974,57.600 149.743 C 57.600 149.472,57.390 149.627,54.246 152.209 M142.800 153.800 C 143.546 154.570,144.247 155.200,144.357 155.200 C 144.467 155.200,143.946 154.570,143.200 153.800 C 142.454 153.030,141.753 152.400,141.643 152.400 C 141.533 152.400,142.054 153.030,142.800 153.800 M48.981 156.900 L 47.400 158.600 49.100 157.019 C 50.035 156.149,50.800 155.384,50.800 155.319 C 50.800 155.016,50.452 155.319,48.981 156.900 M145.836 156.600 C 146.386 157.150,146.950 157.600,147.088 157.600 C 147.226 157.600,146.917 157.150,146.400 156.600 C 145.883 156.050,145.320 155.600,145.148 155.600 C 144.977 155.600,145.286 156.050,145.836 156.600 M149.600 160.600 C 150.346 161.370,151.047 162.000,151.157 162.000 C 151.267 162.000,150.746 161.370,150.000 160.600 C 149.254 159.830,148.553 159.200,148.443 159.200 C 148.333 159.200,148.854 159.830,149.600 160.600 M44.699 161.700 C 42.696 164.086,40.338 167.307,41.258 166.400 C 42.163 165.507,46.834 159.600,46.634 159.600 C 46.539 159.600,45.669 160.545,44.699 161.700 M35.600 163.600 C 35.130 164.260,34.836 164.800,34.946 164.800 C 35.056 164.800,35.530 164.260,36.000 163.600 C 36.470 162.940,36.764 162.400,36.654 162.400 C 36.544 162.400,36.070 162.940,35.600 163.600 M152.175 163.732 C 152.791 164.539,153.376 165.200,153.475 165.200 C 153.753 165.200,152.021 162.860,151.509 162.544 C 151.259 162.389,151.559 162.924,152.175 163.732 M160.605 164.965 C 160.989 165.606,161.659 166.731,162.092 167.465 C 162.525 168.199,162.963 168.800,163.065 168.800 C 163.344 168.800,161.679 165.943,160.733 164.800 L 159.905 163.800 160.605 164.965 M30.581 172.037 C 30.229 172.718,30.012 173.345,30.099 173.432 C 30.186 173.519,30.556 172.962,30.922 172.195 C 31.744 170.470,31.459 170.338,30.581 172.037 M36.200 174.400 C 35.859 175.060,35.669 175.600,35.779 175.600 C 35.889 175.600,36.259 175.060,36.600 174.400 C 36.941 173.740,37.131 173.200,37.021 173.200 C 36.911 173.200,36.541 173.740,36.200 174.400 M58.652 185.116 C 58.544 185.290,59.073 185.361,59.828 185.273 C 60.583 185.185,61.200 185.042,61.200 184.956 C 61.200 184.655,58.845 184.803,58.652 185.116 M65.600 184.955 C 65.600 185.040,66.130 185.187,66.779 185.282 C 67.427 185.377,67.867 185.308,67.755 185.128 C 67.557 184.807,65.600 184.650,65.600 184.955 M83.600 185.195 C 83.191 185.455,83.510 185.499,84.600 185.332 C 86.577 185.029,86.914 184.798,85.367 184.806 C 84.725 184.809,83.930 184.984,83.600 185.195 M92.677 185.086 C 93.318 185.205,93.597 185.593,93.713 186.524 C 93.865 187.748,93.870 187.743,93.836 186.400 C 93.805 185.194,93.662 184.995,92.800 184.961 C 91.977 184.930,91.955 184.952,92.677 185.086 M120.657 185.107 C 120.553 185.276,121.172 185.348,122.034 185.265 C 122.895 185.183,123.600 185.045,123.600 184.958 C 123.600 184.660,120.847 184.800,120.657 185.107 M128.600 185.080 C 129.040 185.183,129.625 185.557,129.900 185.910 C 130.175 186.264,130.400 186.375,130.400 186.156 C 130.400 185.477,129.477 184.798,128.620 184.846 C 127.818 184.892,127.817 184.897,128.600 185.080 M83.746 194.600 C 83.747 196.800,83.814 197.649,83.895 196.487 C 83.976 195.324,83.976 193.524,83.893 192.487 C 83.811 191.449,83.745 192.400,83.746 194.600 M93.320 193.200 C 93.320 194.410,93.395 194.905,93.487 194.300 C 93.578 193.695,93.578 192.705,93.487 192.100 C 93.395 191.495,93.320 191.990,93.320 193.200 M22.901 199.800 C 22.905 200.680,22.987 200.993,23.083 200.495 C 23.179 199.998,23.175 199.278,23.075 198.895 C 22.975 198.513,22.896 198.920,22.901 199.800 M172.509 200.000 C 172.509 200.990,172.587 201.395,172.682 200.900 C 172.778 200.405,172.778 199.595,172.682 199.100 C 172.587 198.605,172.509 199.010,172.509 200.000 M73.214 198.854 C 73.206 198.994,73.463 199.714,73.784 200.454 C 74.106 201.194,74.369 201.530,74.370 201.200 C 74.372 200.624,73.243 198.334,73.214 198.854 M28.893 200.800 C 28.893 201.570,28.975 201.885,29.076 201.500 C 29.176 201.115,29.176 200.485,29.076 200.100 C 28.975 199.715,28.893 200.030,28.893 200.800 M166.493 201.200 C 166.493 201.970,166.575 202.285,166.676 201.900 C 166.776 201.515,166.776 200.885,166.676 200.500 C 166.575 200.115,166.493 200.430,166.493 201.200 M92.940 204.800 C 92.940 206.670,93.009 207.435,93.093 206.500 C 93.177 205.565,93.177 204.035,93.093 203.100 C 93.009 202.165,92.940 202.930,92.940 204.800 M83.674 213.700 C 83.633 216.945,83.735 219.600,83.900 219.601 C 84.065 219.601,84.152 217.846,84.094 215.701 C 83.897 208.474,83.748 207.765,83.674 213.700 M28.901 210.600 C 28.905 211.480,28.987 211.793,29.083 211.295 C 29.179 210.798,29.175 210.078,29.075 209.695 C 28.975 209.313,28.896 209.720,28.901 210.600 M166.493 210.400 C 166.493 211.170,166.575 211.485,166.676 211.100 C 166.776 210.715,166.776 210.085,166.676 209.700 C 166.575 209.315,166.493 209.630,166.493 210.400 M22.909 211.200 C 22.909 212.190,22.987 212.595,23.082 212.100 C 23.178 211.605,23.178 210.795,23.082 210.300 C 22.987 209.805,22.909 210.210,22.909 211.200 M172.501 211.400 C 172.505 212.280,172.587 212.593,172.683 212.095 C 172.779 211.598,172.775 210.878,172.675 210.495 C 172.575 210.113,172.496 210.520,172.501 211.400 M99.491 211.489 C 100.201 211.577,101.461 211.579,102.291 211.492 C 103.121 211.405,102.540 211.333,101.000 211.331 C 99.460 211.329,98.781 211.400,99.491 211.489 M107.693 216.000 C 107.693 216.770,107.775 217.085,107.876 216.700 C 107.976 216.315,107.976 215.685,107.876 215.300 C 107.775 214.915,107.693 215.230,107.693 216.000 M49.300 219.894 C 50.345 219.976,52.055 219.976,53.100 219.894 C 54.145 219.812,53.290 219.744,51.200 219.744 C 49.110 219.744,48.255 219.812,49.300 219.894 M74.112 219.895 C 75.164 219.977,76.784 219.976,77.712 219.892 C 78.640 219.808,77.780 219.741,75.800 219.742 C 73.820 219.743,73.060 219.812,74.112 219.895 M92.082 219.896 C 93.558 219.973,96.078 219.973,97.682 219.897 C 99.287 219.821,98.080 219.758,95.000 219.758 C 91.920 219.757,90.607 219.819,92.082 219.896 M111.900 219.893 C 112.835 219.977,114.365 219.977,115.300 219.893 C 116.235 219.809,115.470 219.740,113.600 219.740 C 111.730 219.740,110.965 219.809,111.900 219.893 M136.112 219.895 C 137.164 219.977,138.784 219.976,139.712 219.892 C 140.640 219.808,139.780 219.741,137.800 219.742 C 135.820 219.743,135.060 219.812,136.112 219.895 M159.482 236.211 C 158.892 237.415,158.494 238.400,158.598 238.400 C 158.867 238.400,160.884 234.351,160.705 234.171 C 160.623 234.089,160.073 235.007,159.482 236.211 M29.628 237.400 C 29.628 237.620,29.886 238.250,30.200 238.800 C 30.514 239.350,30.772 239.620,30.772 239.400 C 30.772 239.180,30.514 238.550,30.200 238.000 C 29.886 237.450,29.628 237.180,29.628 237.400 M164.483 239.813 C 163.782 241.236,163.293 242.400,163.398 242.400 C 163.666 242.400,166.085 237.551,165.906 237.372 C 165.825 237.292,165.185 238.390,164.483 239.813 M37.925 240.200 C 38.372 241.080,39.033 242.160,39.394 242.600 C 39.755 243.040,39.559 242.500,38.959 241.400 C 37.616 238.938,36.807 237.999,37.925 240.200 M157.351 240.100 C 156.983 240.815,156.419 241.850,156.098 242.400 C 155.539 243.359,155.543 243.367,156.189 242.600 C 156.978 241.663,158.507 238.800,158.218 238.800 C 158.110 238.800,157.719 239.385,157.351 240.100 M32.600 243.200 C 32.941 243.860,33.311 244.400,33.421 244.400 C 33.531 244.400,33.341 243.860,33.000 243.200 C 32.659 242.540,32.289 242.000,32.179 242.000 C 32.069 242.000,32.259 242.540,32.600 243.200 M33.949 245.400 C 34.165 245.840,34.634 246.560,34.993 247.000 L 35.644 247.800 35.251 247.000 C 35.035 246.560,34.566 245.840,34.207 245.400 L 33.556 244.600 33.949 245.400 M41.600 246.000 C 42.070 246.660,42.544 247.200,42.654 247.200 C 42.764 247.200,42.470 246.660,42.000 246.000 C 41.530 245.340,41.056 244.800,40.946 244.800 C 40.836 244.800,41.130 245.340,41.600 246.000 M161.353 245.300 C 159.976 247.636,159.886 247.835,160.587 247.000 C 161.400 246.032,162.100 244.800,161.838 244.800 C 161.733 244.800,161.515 245.025,161.353 245.300 M36.839 249.747 C 37.587 250.818,38.795 252.348,39.522 253.147 C 40.250 253.946,39.903 253.340,38.752 251.800 C 36.213 248.402,34.955 247.052,36.839 249.747 M159.315 248.500 C 157.581 250.767,156.666 252.120,157.009 251.913 C 157.481 251.627,160.137 248.000,159.874 248.000 C 159.777 248.000,159.526 248.225,159.315 248.500 M149.626 250.922 L 148.651 252.200 149.926 251.025 C 151.251 249.803,151.403 249.585,150.900 249.622 C 150.735 249.634,150.162 250.219,149.626 250.922 M147.976 252.900 C 147.073 253.682,145.029 256.000,145.242 256.000 C 145.347 256.000,146.228 255.190,147.200 254.200 C 148.838 252.531,149.305 251.748,147.976 252.900 M48.800 254.600 C 49.772 255.590,50.685 256.400,50.831 256.400 C 50.976 256.400,50.285 255.590,49.295 254.600 C 48.305 253.610,47.391 252.800,47.264 252.800 C 47.137 252.800,47.828 253.610,48.800 254.600 M42.600 256.800 C 43.683 257.900,44.660 258.800,44.770 258.800 C 44.880 258.800,44.083 257.900,43.000 256.800 C 41.917 255.700,40.940 254.800,40.830 254.800 C 40.720 254.800,41.517 255.700,42.600 256.800 M150.792 258.700 L 147.000 262.600 150.900 258.808 C 154.522 255.286,154.982 254.800,154.692 254.800 C 154.633 254.800,152.878 256.555,150.792 258.700 M142.974 257.707 L 141.400 259.399 142.996 257.999 C 143.873 257.230,144.668 256.555,144.762 256.500 C 144.856 256.445,144.847 256.313,144.741 256.207 C 144.635 256.101,143.840 256.776,142.974 257.707 M51.600 256.925 C 51.600 256.994,52.185 257.579,52.900 258.225 L 54.200 259.400 53.025 258.100 C 51.930 256.888,51.600 256.616,51.600 256.925 M46.783 260.900 C 47.764 261.945,48.619 262.800,48.683 262.800 C 48.984 262.800,48.666 262.441,46.900 260.783 L 45.000 259.000 46.783 260.900 M54.800 259.746 C 54.800 259.856,55.340 260.330,56.000 260.800 C 56.660 261.270,57.200 261.564,57.200 261.454 C 57.200 261.344,56.660 260.870,56.000 260.400 C 55.340 259.930,54.800 259.636,54.800 259.746 M133.700 264.446 C 132.337 265.319,131.895 265.906,133.100 265.243 C 134.018 264.739,135.456 263.627,135.200 263.619 C 135.090 263.616,134.415 263.988,133.700 264.446 M51.600 264.946 C 51.600 265.056,52.140 265.530,52.800 266.000 C 53.460 266.470,54.000 266.764,54.000 266.654 C 54.000 266.544,53.460 266.070,52.800 265.600 C 52.140 265.130,51.600 264.836,51.600 264.946 M130.200 266.427 C 129.540 266.850,129.180 267.196,129.400 267.195 C 129.620 267.195,130.340 266.837,131.000 266.400 C 131.660 265.963,132.020 265.617,131.800 265.632 C 131.580 265.647,130.860 266.004,130.200 266.427 M141.000 267.035 L 139.800 268.066 141.100 267.206 C 141.815 266.733,142.400 266.268,142.400 266.173 C 142.400 265.873,142.231 265.978,141.000 267.035 M68.000 268.200 C 68.550 268.514,69.180 268.772,69.400 268.772 C 69.620 268.772,69.350 268.514,68.800 268.200 C 68.250 267.886,67.620 267.628,67.400 267.628 C 67.180 267.628,67.450 267.886,68.000 268.200 M124.000 269.400 C 123.450 269.714,123.180 269.972,123.400 269.972 C 123.620 269.972,124.250 269.714,124.800 269.400 C 125.350 269.086,125.620 268.828,125.400 268.828 C 125.180 268.828,124.550 269.086,124.000 269.400 M68.400 274.966 C 68.950 275.260,69.850 275.612,70.400 275.749 C 70.950 275.886,70.680 275.652,69.800 275.229 C 67.990 274.358,66.868 274.148,68.400 274.966 M92.707 274.690 C 93.426 274.779,94.506 274.777,95.107 274.686 C 95.708 274.595,95.120 274.522,93.800 274.524 C 92.480 274.526,91.988 274.601,92.707 274.690 M101.500 274.682 C 101.995 274.778,102.805 274.778,103.300 274.682 C 103.795 274.587,103.390 274.509,102.400 274.509 C 101.410 274.509,101.005 274.587,101.500 274.682 M91.300 280.676 C 91.685 280.776,92.315 280.776,92.700 280.676 C 93.085 280.575,92.770 280.493,92.000 280.493 C 91.230 280.493,90.915 280.575,91.300 280.676 " stroke="none" fill="#f9dc9a" fill-rule="evenodd"></path></g></svg>